<svg width="20" height="20" viewBox="0 0 20 20" fill="none" xmlns="http://www.w3.org/2000/svg">
<g opacity="0.8">
<rect width="20" height="20" stroke="white"/>
<g clip-path="url(#clip0_1_1745)">
<path d="M10.835 5.85C10.835 5.40974 11.01 4.98763 11.3213 4.67633C11.6326 4.36502 12.0548 4.19 12.495 4.19H14.155V2.53L12.495 2.53C11.6144 2.53 10.7703 2.88003 10.1477 3.50266C9.525 4.12527 9.17499 4.96947 9.17499 5.85L9.17499 8.33999C9.17499 8.7984 8.8034 9.17 8.34499 9.17H6.68499L6.68499 10.83H8.34499C8.8034 10.83 9.17499 11.2016 9.17499 11.66V17.47H10.835V11.66C10.835 11.2016 11.2066 10.83 11.665 10.83H13.5073L13.9223 9.17H11.665C11.2066 9.17 10.835 8.7984 10.835 8.33999L10.835 5.85ZM12.495 7.50999L14.985 7.50999C15.2406 7.50999 15.4818 7.6279 15.6391 7.82935C15.7963 8.03075 15.8518 8.29313 15.7898 8.54102L14.9598 11.861C14.8675 12.2305 14.5359 12.49 14.155 12.49H12.495V18.3C12.495 18.7584 12.1234 19.13 11.665 19.13H8.34499C7.8866 19.13 7.51499 18.7584 7.51499 18.3L7.51499 12.49H5.85499C5.3966 12.49 5.02499 12.1184 5.02499 11.66L5.02499 8.33999L5.02904 8.25489C5.07165 7.83646 5.42532 7.50999 5.85499 7.50999L7.51499 7.50999V5.85C7.51499 4.52922 8.04004 3.26291 8.97397 2.32898C9.90788 1.39504 11.1742 0.869995 12.495 0.869995L14.985 0.869995L15.0701 0.874045C15.4886 0.916649 15.815 1.27032 15.815 1.7L15.815 5.02C15.815 5.47839 15.4434 5.85 14.985 5.85L12.495 5.85L12.495 7.50999Z" fill="white"/>
</g>
</g>
<defs>
<clipPath id="clip0_1_1745">
<rect width="20" height="20" fill="white"/>
</clipPath>
</defs>
</svg>
