<svg width="20" height="20" viewBox="0 0 20 20" fill="none" xmlns="http://www.w3.org/2000/svg">
<g opacity="0.8">
<rect width="20" height="20" stroke="white"/>
<path d="M11.3074 3.02286C12.7326 2.28033 14.5919 2.32661 16.0685 3.49055C16.1408 3.47312 16.2243 3.45096 16.3182 3.41922C16.549 3.34121 16.7972 3.23284 17.0323 3.1177C17.2654 3.00355 17.4741 2.88842 17.6248 2.80158C17.6998 2.75837 17.7597 2.72221 17.7999 2.69783C17.82 2.68566 17.8356 2.67625 17.8453 2.67028C17.8499 2.66742 17.853 2.66501 17.855 2.66379H17.8566C18.1533 2.47646 18.5361 2.49525 18.8123 2.71161C19.0536 2.90089 19.1679 3.20517 19.1186 3.50109L19.0871 3.62753V3.62915L19.0863 3.63078C19.0857 3.6324 19.0847 3.6348 19.0838 3.63726C19.0821 3.64214 19.0801 3.6487 19.0773 3.65671C19.0717 3.67297 19.064 3.69567 19.0538 3.72399C19.0333 3.78082 19.0028 3.86138 18.9638 3.95986C18.8861 4.1563 18.7709 4.42857 18.6194 4.73717C18.3696 5.24585 18.0013 5.88885 17.5154 6.45715C18.5859 15.1094 9.18519 21.3674 1.6068 16.7389L1.24124 16.5071C0.930208 16.301 0.795611 15.9119 0.911351 15.5571C1.02718 15.2027 1.36484 14.969 1.7373 14.9857C2.86677 15.0371 3.98452 14.8025 4.94706 14.3211C1.32732 12.3239 -0.265134 7.59945 1.80052 3.79855L1.85483 3.71183C1.99237 3.51957 2.20733 3.39342 2.44571 3.36897C2.71812 3.34117 2.98698 3.4501 3.16386 3.65915C4.63191 5.39393 6.81674 6.48422 9.08003 6.66222C9.08916 5.00815 10.02 3.69367 11.3074 3.02286ZM15.2434 4.96737C14.2723 4.06122 13.0181 4.00434 12.075 4.49563C11.1498 4.97765 10.5213 5.9864 10.8114 7.34064C10.863 7.58151 10.8053 7.83334 10.6533 8.02718C10.5012 8.22104 10.2706 8.33767 10.0243 8.34491C7.38864 8.42238 4.75866 7.43785 2.80722 5.67092C1.84453 8.80867 3.64592 12.3779 6.91831 13.3598C7.20758 13.4465 7.42732 13.6839 7.49137 13.979C7.54737 14.2373 7.47661 14.5045 7.30575 14.7004L7.22632 14.7799C6.45341 15.4561 5.53852 15.9516 4.55881 16.2631C10.5436 18.0926 16.8912 13.0097 15.8205 6.31774C15.7786 6.0551 15.8652 5.78852 16.0532 5.6004C16.2041 5.44952 16.3444 5.2782 16.4762 5.09867C16.2614 5.15161 16.0343 5.19108 15.81 5.19108C15.5998 5.19108 15.3972 5.11081 15.2434 4.96737Z" fill="white"/>
</g>
</svg>
