<svg width="2243" height="882" viewBox="0 0 2243 882" fill="none" xmlns="http://www.w3.org/2000/svg">
<g clip-path="url(#clip0_25_1237)">
<rect width="2243" height="882" fill="#F9FAFA"/>
<path d="M1416.69 212.602C1404.87 216.662 1405.55 228.886 1397.93 242.602C1386.73 262.727 1393.73 274.929 1404.23 274.611C1414.73 274.304 1419.61 260.598 1430.16 257.515C1430.19 257.515 1430.22 257.493 1430.26 257.482C1430.29 257.482 1430.32 257.46 1430.35 257.449C1440.79 253.948 1452.38 262.475 1461.24 256.714C1470.09 250.953 1469.13 236.852 1448.77 226.636C1434.89 219.668 1428.7 209.178 1416.7 212.591L1416.69 212.602Z" fill="#D9D9D9" fill-opacity="0.5"/>
<path d="M1385.22 212.625C1394.6 219.79 1398.52 230.588 1394 236.744C1389.46 242.9 1378.19 242.088 1368.82 234.933C1359.44 227.768 1355.51 216.97 1360.04 210.814C1364.58 204.658 1375.85 205.47 1385.22 212.625Z" fill="#D9D9D9" fill-opacity="0.5"/>
<path d="M1442.7 194.585C1438.9 205.877 1441.62 217.058 1448.77 219.56C1455.92 222.051 1464.78 214.919 1468.58 203.627C1472.38 192.336 1469.67 181.154 1462.52 178.652C1455.37 176.161 1446.49 183.294 1442.7 194.585Z" fill="#D9D9D9" fill-opacity="0.5"/>
<path d="M1403.86 181.362C1409.51 192.554 1408.35 204.647 1401.27 208.356C1394.18 212.065 1383.85 205.997 1378.21 194.804C1372.56 183.6 1373.72 171.519 1380.81 167.81C1387.89 164.101 1398.22 170.169 1403.86 181.362Z" fill="#D9D9D9" fill-opacity="0.5"/>
<path d="M1410.03 179.419C1411.54 191.917 1419.17 201.245 1427.08 200.246C1434.98 199.258 1440.17 188.318 1438.65 175.82C1437.15 163.321 1429.51 153.994 1421.61 154.982C1413.7 155.969 1408.51 166.91 1410.02 179.408L1410.03 179.419Z" fill="#D9D9D9" fill-opacity="0.5"/>
<path d="M1712.08 174.975C1702.42 182.996 1707.26 194.2 1704.84 209.771C1701.29 232.617 1712.05 241.538 1721.77 237.5C1731.49 233.451 1731.33 218.878 1740.16 212.218C1740.19 212.196 1740.22 212.174 1740.25 212.152C1740.27 212.13 1740.3 212.108 1740.32 212.086C1748.88 205.074 1762.68 208.915 1768.99 200.356C1775.29 191.796 1769.54 178.936 1746.95 176.654C1731.55 175.095 1722.15 167.491 1712.08 174.986V174.975Z" fill="#D2DEFF" fill-opacity="0.5"/>
<path d="M1682.63 186.256C1693.87 189.602 1701.27 198.315 1699.16 205.7C1697.03 213.085 1686.2 216.366 1674.96 213.008C1663.72 209.661 1656.31 200.949 1658.43 193.564C1660.55 186.179 1671.38 182.898 1682.63 186.256Z" fill="#D2DEFF" fill-opacity="0.5"/>
<path d="M1730.23 148.793C1730.57 160.732 1736.96 170.224 1744.51 170.004C1752.06 169.785 1757.91 159.931 1757.57 147.992C1757.24 136.053 1750.84 126.562 1743.3 126.781C1735.75 127.001 1729.9 136.854 1730.23 148.793Z" fill="#D2DEFF" fill-opacity="0.5"/>
<path d="M1689.3 150.308C1698.46 158.768 1701.52 170.51 1696.17 176.512C1690.82 182.525 1679.06 180.539 1669.91 172.068C1660.75 163.607 1657.69 151.866 1663.04 145.864C1668.39 139.851 1680.15 141.837 1689.3 150.308Z" fill="#D2DEFF" fill-opacity="0.5"/>
<path d="M1694.42 146.28C1700.14 157.44 1710.49 163.442 1717.56 159.689C1724.62 155.937 1725.71 143.833 1719.99 132.674C1714.27 121.514 1703.91 115.512 1696.85 119.264C1689.79 123.017 1688.7 135.121 1694.42 146.28Z" fill="#D2DEFF" fill-opacity="0.5"/>
<path d="M0.8874 694.026C-11.3779 691.777 -16.5683 702.827 -29.7382 711.101C-49.0569 723.237 -48.7123 737.359 -39.3653 742.242C-30.0182 747.125 -19.2712 737.513 -8.55657 739.993C-8.52427 739.993 -8.49196 740.004 -8.45966 740.015C-8.42735 740.015 -8.39504 740.026 -8.36274 740.037C2.43807 742.089 8.56534 755.257 19.0431 754.554C29.5208 753.852 35.3466 741.024 22.3383 722.074C13.465 709.158 13.0127 696.923 0.876638 694.026H0.8874Z" fill="#D2DEFF" fill-opacity="0.5"/>
<path d="M32.2023 691.019C23.5337 699.051 20.6262 710.178 25.7089 715.873C30.7916 721.568 41.937 719.669 50.6057 711.637C59.2743 703.605 62.1818 692.478 57.0991 686.783C52.0164 681.088 40.871 682.986 32.2023 691.019Z" fill="#D2DEFF" fill-opacity="0.5"/>
<path d="M4.43017 660.349C4.08558 672.935 -2.64474 682.954 -10.6134 682.734C-18.5821 682.504 -24.7525 672.123 -24.4079 659.537C-24.0633 646.951 -17.333 636.933 -9.36428 637.152C-1.40635 637.382 4.77476 647.763 4.43017 660.349Z" fill="#D2DEFF" fill-opacity="0.5"/>
<path d="M10.7515 661.689C6.16407 673.386 8.44699 685.303 15.845 688.321C23.2429 691.339 32.9561 684.294 37.5435 672.607C42.1309 660.91 39.8479 648.993 32.45 645.976C25.052 642.958 15.3388 650.003 10.7515 661.689Z" fill="#D2DEFF" fill-opacity="0.5"/>
<path d="M2221.51 264.207C2211.51 271.79 2215.87 283.202 2212.78 298.641C2208.25 321.301 2218.59 330.705 2228.49 327.094C2238.38 323.495 2238.85 308.923 2247.96 302.657C2247.99 302.635 2248.01 302.624 2248.05 302.602C2248.08 302.58 2248.1 302.558 2248.13 302.537C2257 295.909 2270.61 300.375 2277.27 292.101C2283.94 283.827 2278.75 270.725 2256.28 267.433C2240.97 265.184 2231.9 257.163 2221.52 264.196L2221.51 264.207Z" fill="#D9D9D9" fill-opacity="0.5"/>
<path d="M2191.61 274.15C2202.7 278.001 2209.71 287.032 2207.28 294.318C2204.84 301.604 2193.87 304.392 2182.78 300.529C2171.69 296.678 2164.68 287.647 2167.11 280.36C2169.55 273.074 2180.52 270.287 2191.61 274.15Z" fill="#D9D9D9" fill-opacity="0.5"/>
<path d="M2240.79 238.871C2240.61 250.81 2246.58 260.587 2254.14 260.708C2261.69 260.829 2267.97 251.249 2268.14 239.31C2268.32 227.372 2262.35 217.594 2254.79 217.474C2247.24 217.353 2240.96 226.933 2240.79 238.871Z" fill="#D9D9D9" fill-opacity="0.5"/>
<path d="M2199.84 238.541C2208.61 247.407 2211.18 259.269 2205.57 265.03C2199.95 270.791 2188.29 268.278 2179.52 259.412C2170.74 250.546 2168.18 238.684 2173.79 232.923C2179.4 227.162 2191.06 229.675 2199.83 238.541H2199.84Z" fill="#D9D9D9" fill-opacity="0.5"/>
<path d="M2205.11 234.745C2210.35 246.157 2220.44 252.609 2227.65 249.175C2234.87 245.74 2236.48 233.703 2231.25 222.301C2226.01 210.889 2215.92 204.437 2208.71 207.872C2201.49 211.306 2199.88 223.344 2205.11 234.745Z" fill="#D9D9D9" fill-opacity="0.5"/>
<path d="M1142.45 4.18964C1135.2 14.5263 1142.76 24.0291 1144.45 39.6987C1146.91 62.6874 1159.59 68.4154 1167.93 61.9084C1176.27 55.4013 1172.36 41.3776 1179.16 32.5881C1179.18 32.5552 1179.2 32.5333 1179.22 32.5113C1179.24 32.4784 1179.26 32.4564 1179.28 32.4235C1185.73 23.3597 1200.04 23.3707 1203.91 13.4181C1207.79 3.46542 1198.92 -7.39799 1176.53 -3.54642C1161.27 -0.923835 1150.23 -5.74104 1142.46 4.17868L1142.45 4.18964Z" fill="#D9D9D9" fill-opacity="0.5"/>
<path d="M1116.93 22.9648C1128.65 23.1842 1138.03 29.6035 1137.9 37.2957C1137.77 44.9878 1128.16 51.056 1116.44 50.8365C1104.72 50.6171 1095.34 44.1978 1095.47 36.5056C1095.61 28.8134 1105.22 22.7453 1116.93 22.9648Z" fill="#D9D9D9" fill-opacity="0.5"/>
<path d="M1114.1 -13.51C1125.12 -7.79295 1131.11 2.69736 1127.5 9.92866C1123.88 17.16 1112.02 18.3999 1101.02 12.6829C1090 6.96592 1084.02 -3.5244 1087.62 -10.7557C1091.24 -17.987 1103.1 -19.227 1114.1 -13.51Z" fill="#D9D9D9" fill-opacity="0.5"/>
<path d="M568.129 707.424C557.727 700.424 548.681 708.489 533.379 710.793C510.927 714.173 505.779 727.297 512.477 735.538C519.175 743.778 532.776 739.269 541.66 745.863C541.692 745.885 541.714 745.907 541.746 745.929C541.778 745.951 541.8 745.962 541.832 745.984C550.964 752.217 551.492 766.778 561.388 770.344C571.295 773.911 581.611 764.474 576.991 741.825C573.847 726.386 578.154 714.963 568.129 707.424Z" fill="#C27800" fill-opacity="0.11"/>
<path d="M548.767 682.163C548.993 694.102 543.049 703.901 535.5 704.043C527.951 704.186 521.641 694.628 521.415 682.701C521.189 670.762 527.133 660.963 534.682 660.82C542.23 660.667 548.541 670.224 548.767 682.163Z" fill="#C27800" fill-opacity="0.11"/>
<path d="M598.076 717.256C586.995 721.151 580.017 730.204 582.483 737.48C584.949 744.755 595.922 747.498 607.003 743.603C618.084 739.707 625.062 730.654 622.596 723.379C620.13 716.104 609.157 713.361 598.076 717.256Z" fill="#C27800" fill-opacity="0.11"/>
<path d="M584.422 677.907C579.231 689.33 569.163 695.837 561.937 692.424C554.712 689.012 553.053 676.985 558.244 665.562C563.434 654.139 573.503 647.632 580.728 651.045C587.954 654.457 589.612 666.484 584.422 677.907Z" fill="#C27800" fill-opacity="0.11"/>
<path d="M589.72 681.67C580.976 690.569 578.456 702.442 584.088 708.181C589.72 713.92 601.371 711.363 610.115 702.464C618.859 693.564 621.379 681.691 615.747 675.953C610.115 670.214 598.464 672.77 589.72 681.67Z" fill="#C27800" fill-opacity="0.11"/>
<path d="M1136.66 360.279C1128.76 370.1 1135.69 380.097 1136.37 395.843C1137.35 418.953 1149.63 425.515 1158.37 419.578C1167.12 413.642 1164.11 399.388 1171.46 391.07C1171.48 391.048 1171.5 391.015 1171.52 390.993C1171.54 390.971 1171.56 390.938 1171.59 390.916C1178.61 382.302 1192.87 383.279 1197.39 373.601C1201.89 363.933 1193.75 352.499 1171.17 354.848C1155.78 356.45 1145.06 350.897 1136.66 360.279Z" fill="#D9D9D9" fill-opacity="0.5"/>
<path d="M1110.01 377.299C1121.68 378.297 1130.63 385.331 1130 393.001C1129.36 400.671 1119.38 406.081 1107.71 405.072C1096.03 404.073 1087.08 397.039 1087.72 389.369C1088.36 381.699 1098.34 376.3 1110.01 377.299Z" fill="#D9D9D9" fill-opacity="0.5"/>
<path d="M1149.35 330.937C1152.01 342.568 1160.13 350.579 1167.48 348.834C1174.84 347.089 1178.65 336.248 1175.99 324.616C1173.33 312.985 1165.21 304.974 1157.86 306.719C1150.5 308.464 1146.69 319.305 1149.35 330.937Z" fill="#D9D9D9" fill-opacity="0.5"/>
<path d="M1109.54 340.714C1120.16 347.155 1125.46 358.03 1121.39 365.009C1117.32 371.988 1105.41 372.415 1094.8 365.985C1084.18 359.544 1078.87 348.67 1082.94 341.691C1087.01 334.712 1098.92 334.284 1109.54 340.714Z" fill="#D9D9D9" fill-opacity="0.5"/>
<path d="M1113.76 335.743C1121.54 345.52 1132.87 349.306 1139.05 344.192C1145.23 339.079 1143.94 327.008 1136.16 317.231C1128.37 307.454 1117.04 303.668 1110.86 308.782C1104.67 313.895 1105.97 325.966 1113.76 335.743Z" fill="#D9D9D9" fill-opacity="0.5"/>
<path d="M1205.93 664.278C1195.53 657.255 1186.48 665.299 1171.17 667.559C1148.7 670.884 1143.52 683.986 1150.2 692.249C1156.88 700.511 1170.49 696.034 1179.35 702.651C1179.38 702.673 1179.4 702.695 1179.44 702.717C1179.47 702.739 1179.49 702.75 1179.52 702.772C1188.63 709.027 1189.13 723.588 1199.02 727.176C1208.92 730.764 1219.26 721.36 1214.69 698.701C1211.58 683.262 1215.93 671.839 1205.91 664.278H1205.93Z" fill="#D9D9D9" fill-opacity="0.5"/>
<path d="M1186.62 638.962C1186.81 650.901 1180.85 660.678 1173.3 660.81C1165.75 660.941 1159.46 651.362 1159.27 639.423C1159.07 627.484 1165.04 617.707 1172.59 617.576C1180.14 617.444 1186.42 627.023 1186.62 638.962Z" fill="#D9D9D9" fill-opacity="0.5"/>
<path d="M1235.84 674.176C1224.75 678.039 1217.75 687.08 1220.19 694.367C1222.64 701.653 1233.61 704.418 1244.69 700.555C1255.77 696.693 1262.78 687.651 1260.34 680.365C1257.89 673.079 1246.92 670.313 1235.84 674.176Z" fill="#D9D9D9" fill-opacity="0.5"/>
<path d="M1222.28 634.793C1217.07 646.205 1206.98 652.679 1199.77 649.255C1192.54 645.832 1190.93 633.794 1196.14 622.382C1201.35 610.97 1211.44 604.496 1218.67 607.92C1225.89 611.343 1227.51 623.381 1222.29 634.793H1222.28Z" fill="#D9D9D9" fill-opacity="0.5"/>
<path d="M1227.57 638.579C1218.8 647.456 1216.25 659.318 1221.87 665.079C1227.49 670.84 1239.15 668.305 1247.91 659.428C1256.68 650.55 1259.23 638.688 1253.61 632.928C1247.99 627.167 1236.34 629.701 1227.57 638.579Z" fill="#D9D9D9" fill-opacity="0.5"/>
<path d="M279.512 867.084C268.011 862.168 260.602 871.802 245.979 876.96C224.528 884.52 221.857 898.39 229.944 905.226C238.021 912.063 250.566 905.062 260.495 909.868C260.527 909.879 260.559 909.901 260.592 909.912C260.624 909.923 260.656 909.934 260.688 909.956C270.789 914.356 273.955 928.566 284.336 930.201C294.717 931.836 303.138 920.611 294.48 899.235C288.579 884.663 290.743 872.614 279.523 867.095L279.512 867.084Z" fill="#D9D9D9" fill-opacity="0.5"/>
<path d="M255.886 845.918C258.276 857.604 254.217 868.358 246.829 869.927C239.431 871.496 231.506 863.299 229.104 851.602C226.703 839.905 230.774 829.162 238.161 827.593C245.559 826.024 253.484 834.221 255.886 845.907V845.918Z" fill="#D9D9D9" fill-opacity="0.5"/>
<path d="M310.73 871.09C300.553 877.005 295.342 887.231 299.089 893.914C302.836 900.597 314.122 901.222 324.298 895.297C334.474 889.382 339.686 879.166 335.939 872.473C332.191 865.779 320.906 865.164 310.73 871.09Z" fill="#D9D9D9" fill-opacity="0.5"/>
<path d="M290.162 834.999C287.136 847.212 278.424 855.497 270.703 853.51C262.982 851.524 259.17 840.013 262.185 827.811C265.201 815.609 273.923 807.313 281.644 809.3C289.365 811.286 293.177 822.797 290.162 834.999Z" fill="#D9D9D9" fill-opacity="0.5"/>
<path d="M296.041 837.698C289.074 848.089 288.751 860.237 295.32 864.812C301.9 869.388 312.883 864.681 319.851 854.278C326.818 843.887 327.141 831.739 320.561 827.164C313.982 822.588 302.998 827.295 296.031 837.698H296.041Z" fill="#D9D9D9" fill-opacity="0.5"/>
<path d="M1690.03 466.762C1680.92 458.093 1670.68 464.502 1655.22 464.172C1632.53 463.679 1625.31 475.749 1630.56 485.01C1635.82 494.283 1649.95 492.143 1657.64 500.153C1657.66 500.175 1657.69 500.208 1657.72 500.23C1657.74 500.252 1657.77 500.274 1657.79 500.307C1665.77 507.999 1663.91 522.451 1673.09 527.652C1682.26 532.853 1693.99 525.304 1693.15 502.194C1692.58 486.437 1698.7 475.914 1690.05 466.762H1690.03Z" fill="#D9D9D9" fill-opacity="0.5"/>
<path d="M1675.08 438.559C1673.34 450.366 1665.88 459.013 1658.41 457.882C1650.93 456.741 1646.28 446.251 1648.02 434.433C1649.75 422.626 1657.21 413.979 1664.69 415.109C1672.16 416.25 1676.81 426.741 1675.08 438.559Z" fill="#D9D9D9" fill-opacity="0.5"/>
<path d="M1717.95 481.553C1706.39 483.506 1698.03 491.253 1699.25 498.846C1700.49 506.44 1710.86 511.016 1722.43 509.051C1733.98 507.098 1742.35 499.351 1741.12 491.758C1739.88 484.164 1729.51 479.589 1717.95 481.553Z" fill="#D9D9D9" fill-opacity="0.5"/>
<path d="M1710.94 440.426C1703.95 450.806 1692.95 455.503 1686.38 450.916C1679.82 446.329 1680.16 434.182 1687.15 423.801C1694.14 413.421 1705.13 408.724 1711.7 413.311C1718.27 417.898 1717.93 430.045 1710.94 440.426Z" fill="#D9D9D9" fill-opacity="0.5"/>
<path d="M1715.53 445.045C1705.46 452.331 1701.03 463.611 1705.64 470.228C1710.25 476.845 1722.16 476.307 1732.24 469.021C1742.32 461.735 1746.74 450.454 1742.13 443.838C1737.52 437.221 1725.61 437.759 1715.53 445.045Z" fill="#D9D9D9" fill-opacity="0.5"/>
<path d="M811.605 -15.9038C801.536 -23.3874 792.135 -15.7721 776.736 -14.2029C754.155 -11.8986 748.404 0.961954 754.715 9.51003C761.025 18.0691 774.82 14.2175 783.381 21.2184C783.402 21.2403 783.434 21.2623 783.456 21.2842C783.488 21.3061 783.51 21.3281 783.542 21.35C792.372 28.0107 792.232 42.5831 801.956 46.6212C811.68 50.6593 822.427 41.7272 818.863 18.8811C816.429 3.3102 821.275 -7.89338 811.605 -15.9147V-15.9038Z" fill="#C27800" fill-opacity="0.11"/>
<path d="M841.056 -4.65582C829.814 -1.29804 822.416 7.41463 824.548 14.7995C826.67 22.1845 837.514 25.4545 848.756 22.0857C859.998 18.7279 867.396 10.0153 865.264 2.63034C863.143 -4.75458 852.299 -8.02457 841.056 -4.65582Z" fill="#C27800" fill-opacity="0.11"/>
<path d="M30.0377 327.642C22.9305 338.077 30.63 347.47 32.536 363.118C35.325 386.074 48.0749 391.615 56.3236 384.988C64.5723 378.36 60.4587 364.402 67.1352 355.503C67.1567 355.47 67.1783 355.448 67.1998 355.415C67.2213 355.382 67.2428 355.36 67.2536 355.327C73.5747 346.176 87.8753 345.978 91.612 335.971C95.3486 325.963 86.3246 315.231 64.0015 319.412C48.7856 322.254 37.6725 317.591 30.0377 327.631V327.642Z" fill="#D9D9D9" fill-opacity="0.5"/>
<path d="M4.79644 346.78C16.5126 346.834 25.9888 353.111 25.9565 360.803C25.9242 368.495 16.4049 374.695 4.68875 374.651C-7.02738 374.607 -16.5037 368.32 -16.4714 360.628C-16.439 352.935 -6.9197 346.736 4.8072 346.78H4.79644Z" fill="#D9D9D9" fill-opacity="0.5"/>
<path d="M40.3863 297.369C43.9507 308.748 52.6732 316.067 59.8665 313.73C67.0599 311.392 70.0104 300.265 66.4461 288.897C62.8817 277.518 54.1592 270.199 46.9659 272.536C39.7725 274.874 36.8219 285.989 40.3863 297.369Z" fill="#D9D9D9" fill-opacity="0.5"/>
<path d="M1.45818 310.36C12.5497 315.913 18.6878 326.326 15.1773 333.612C11.6667 340.898 -0.178634 342.303 -11.2702 336.751C-22.3617 331.198 -28.4998 320.785 -24.9893 313.498C-21.4787 306.212 -9.63337 304.808 1.45818 310.36Z" fill="#D9D9D9" fill-opacity="0.5"/>
<path d="M5.28112 305.05C13.8098 314.168 25.3967 317.01 31.1578 311.414C36.919 305.818 34.6899 293.879 26.1612 284.771C17.6326 275.653 6.04568 272.811 0.284534 278.407C-5.47661 284.003 -3.24753 295.942 5.28112 305.05Z" fill="#D9D9D9" fill-opacity="0.5"/>
<path d="M494.935 -6.37841C489.939 -15.7714 503.787 -16.4518 503.292 -6.23576C502.538 9.38998 480.226 8.12808 476.92 -7.1575C473.043 -25.0766 491.597 -41.1084 510.14 -32.8127C539.409 -19.7218 525.292 24.2147 488.754 27.2762C444.14 31.018 440.727 -31.046 471.202 -45.344C477.76 -48.4275 480.452 -41.7448 474.831 -38.815C463.373 -32.8456 457.946 -15.947 460.002 -2.52684C463.965 23.26 497.703 25.707 512.434 5.64815C522.05 -7.44281 517.366 -22.2017 504.702 -25.8448C493.708 -29.005 484.695 -21.0605 484.576 -11.6784C484.479 -4.19476 493.535 -0.617514 494.935 -6.37841Z" fill="#D9D9D9" fill-opacity="0.5"/>
<path d="M1977.63 526.072C1983.27 517.063 1990.57 529.09 1981.56 533.589C1967.78 540.48 1958.06 519.982 1969.57 509.634C1983.08 497.498 2005.83 506.277 2007.69 526.829C2010.63 559.266 1966.07 567.957 1945.74 536.87C1920.92 498.914 1972.56 465.808 1999.59 486.042C2005.4 490.399 2000.99 496.028 1995.74 492.44C1985.07 485.12 1967.93 488.456 1957.41 496.796C1937.18 512.817 1951.42 544.079 1975.78 547.503C1991.68 549.741 2002.08 538.406 1999.07 525.348C1996.45 514.024 1985.27 509.832 1977.16 514.265C1970.68 517.809 1972 527.608 1977.63 526.061V526.072Z" fill="#9000FF" fill-opacity="0.12"/>
<path d="M1503.07 783.314C1492.63 782.37 1499.73 770.223 1507.81 776.291C1520.17 785.574 1506.8 803.812 1492.48 798.172C1475.68 791.555 1472.83 766.942 1489.86 755.782C1516.75 738.16 1544.86 774.437 1527.18 807.159C1505.58 847.112 1452.94 815.707 1458.09 781.92C1459.2 774.645 1466.15 776.05 1465.44 782.447C1463.98 795.472 1474.8 809.43 1486.92 815.103C1510.2 825.999 1530.84 798.698 1522.58 775.106C1517.19 759.7 1502.53 755.519 1492.55 764.265C1483.89 771.847 1485.41 783.896 1493.01 789.185C1499.09 793.409 1507.01 787.692 1503.07 783.314Z" fill="#D9D9D9" fill-opacity="0.5"/>
<path d="M2097.79 -21.3994C2094.77 -31.6263 2108.48 -29.4317 2105.96 -19.5339C2102.1 -4.39098 2080.51 -10.2397 2080.32 -25.8874C2080.09 -44.2345 2101.45 -56.0964 2117.95 -44.1467C2144.01 -25.2838 2121.44 14.823 2085.06 10.2801C2040.62 4.7277 2049.64 -56.7548 2082.32 -64.4579C2089.35 -66.1149 2090.67 -59.0262 2084.57 -57.3144C2072.17 -53.8359 2063.49 -38.4077 2062.83 -24.8449C2061.57 1.22726 2094.12 10.5873 2112.55 -6.00404C2124.58 -16.8455 2122.92 -32.2628 2111.24 -38.4406C2101.11 -43.8065 2090.71 -37.892 2088.72 -28.7294C2087.13 -21.4213 2095.29 -16.0445 2097.81 -21.3994H2097.79Z" fill="#D9D9D9" fill-opacity="0.5"/>
<path d="M665.422 253.597C661.826 243.567 675.631 244.95 673.671 254.979C670.677 270.331 648.796 265.744 647.719 250.14C646.459 231.837 667.113 218.746 684.267 229.708C711.35 247.013 691.073 288.382 654.492 285.968C609.814 283.027 615.349 221.127 647.536 211.515C654.471 209.452 656.172 216.453 650.185 218.516C637.995 222.718 630.199 238.618 630.306 252.214C630.522 278.319 663.549 285.759 681.004 268.114C692.397 256.592 689.878 241.296 677.871 235.809C667.447 231.047 657.4 237.565 655.935 246.826C654.772 254.222 663.204 259.105 665.422 253.608V253.597Z" fill="#D9D9D9" fill-opacity="0.5"/>
<path d="M269.497 529.265C269.195 518.588 281.859 524.36 276.895 533.237C269.292 546.833 249.952 535.421 253.775 520.267C258.265 502.502 281.924 496.741 294.792 512.685C315.101 537.846 283.011 570.535 249.069 556.446C207.61 539.24 232.087 482.3 265.609 483.584C272.824 483.858 272.264 491.046 265.943 491.079C253.075 491.133 240.734 503.698 236.621 516.624C228.717 541.456 257.727 559.167 279.77 548.062C294.157 540.809 296.526 525.49 286.834 516.404C278.435 508.526 266.869 511.456 262.605 519.773C259.202 526.412 265.685 533.764 269.497 529.265Z" fill="#9000FF" fill-opacity="0.12"/>
<path d="M197.079 25.377C191.145 16.5985 191.953 18.7931 262.013 1.63115C265.868 0.687465 269.012 0.972768 269.206 5.01088C269.271 6.29474 260.301 92.5107 259.977 93.7507C256.628 106.326 247.454 87.8032 197.079 25.377ZM207.18 24.554C222.159 43.4498 237.148 62.3455 252.16 81.2303C253.484 82.8982 260.257 12.308 260.247 10.8486C258.534 11.1558 206.092 23.1824 207.18 24.554Z" fill="#9000FF" fill-opacity="0.12"/>
<path d="M1938.05 188.637C1938.05 177.982 1937.51 180.253 2004.73 206.665C2008.43 208.114 2010.86 210.177 2008.77 213.611C2008.1 214.709 1952.68 280.482 1951.71 281.305C1941.94 289.721 1944.72 269.168 1938.04 188.637H1938.05ZM1946.83 193.805C1948.63 218.034 1950.44 242.251 1952.27 266.48C1952.43 268.609 1997.35 214.434 1998.15 213.238C1996.57 212.503 1946.7 192.038 1946.83 193.805Z" fill="#D9D9D9" fill-opacity="0.5"/>
<path d="M1005.69 806.533C1007.15 795.977 1006.29 798.149 1069.25 833.867C1072.72 835.831 1074.84 838.212 1072.3 841.318C1071.49 842.305 1007.6 899.563 1006.54 900.243C995.714 907.189 1001.27 887.229 1005.69 806.533ZM1013.68 812.897C1012.14 837.137 1010.62 861.388 1009.11 885.638C1008.98 887.778 1060.86 840.506 1061.83 839.43C1060.37 838.476 1013.78 811.131 1013.68 812.897Z" fill="#9000FF" fill-opacity="0.12"/>
<path d="M-57.1656 0.786838C-65.2097 -6.01651 -63.8421 -4.14011 -0.975593 -40.0113C2.4811 -41.9865 5.58243 -42.579 6.84234 -38.7494C7.24078 -37.5314 21.5521 47.9384 21.5629 49.2223C21.6921 62.2474 7.92996 46.9618 -57.1656 0.786838ZM-47.6678 -2.80138C-28.2199 11.2552 -8.76122 25.2899 10.7082 39.3245C12.4204 40.5645 0.165863 -29.2576 -0.232572 -30.6512C-1.794 -29.8831 -49.0785 -3.82189 -47.6678 -2.80138Z" fill="#D9D9D9" fill-opacity="0.5"/>
<path d="M862.787 280.47C856.089 272.284 857.091 274.391 925.309 250.755C929.057 249.46 932.223 249.449 932.772 253.443C932.944 254.716 931.781 341.404 931.566 342.677C929.369 355.515 918.557 337.925 862.777 280.47H862.787ZM872.77 278.703C889.386 296.129 906.023 313.532 922.66 330.936C924.125 332.472 924.512 261.552 924.383 260.093C922.714 260.565 871.564 277.431 872.77 278.703Z" fill="#D9D9D9" fill-opacity="0.5"/>
<path d="M1383.55 477.669C1377.84 468.736 1378.61 470.942 1449.08 455.678C1452.95 454.834 1456.09 455.207 1456.17 459.245C1456.21 460.529 1445 546.47 1444.63 547.71C1440.96 560.198 1432.27 541.434 1383.54 477.669H1383.55ZM1393.67 477.12C1408.16 496.422 1422.65 515.712 1437.16 534.992C1438.44 536.693 1447.04 466.311 1447.08 464.852C1445.36 465.115 1392.62 475.715 1393.66 477.12H1393.67Z" fill="#D9D9D9" fill-opacity="0.5"/>
<path d="M436.99 322.334C439.176 311.909 438.175 314.016 498.511 354.145C501.827 356.351 503.787 358.885 501.041 361.793C500.169 362.726 432.489 415.265 431.38 415.88C420.105 422.036 427.029 402.526 436.99 322.345V322.334ZM444.517 329.247C441.319 353.322 438.132 377.397 434.955 401.483C434.675 403.601 489.691 360.169 490.725 359.16C489.336 358.106 444.743 327.491 444.517 329.247Z" fill="#D9D9D9" fill-opacity="0.5"/>
<path d="M1924.98 857.339C1928.65 857.372 1928.51 860.587 1928.58 862.77C1929.47 894.516 1951.08 842.174 1967.78 856.636C1973.39 861.498 1978.34 871.351 1984.9 867.138C1990.17 863.758 1993.81 855.737 2001.42 851.644C2010.73 846.618 2016.36 857.844 2024.76 863.111C2032.03 867.654 2036.84 852.906 2042.43 850.492C2045.51 849.164 2048.37 851.501 2047.8 854.859C2047.45 856.911 2044.38 860.356 2038.55 866.962C2027.79 879.131 2018.52 869.168 2010.48 862.013C2005.38 857.459 2005.77 857.174 1996.71 867.302C1994.28 870.024 1992.19 872.668 1988.68 874.676C1981.74 878.627 1974.56 876.18 1969.09 870.32C1962.7 863.484 1962.12 860.06 1956.52 864.548C1948.03 871.351 1943.08 879.779 1934.76 880.909C1919.25 883.027 1918.13 857.295 1924.98 857.361V857.339Z" fill="#D2DEFF" fill-opacity="0.5"/>
<path d="M2176.33 583.899C2178.39 587.005 2175.72 588.705 2173.98 590C2148.85 608.797 2203.41 597.166 2201.22 619.375C2200.47 626.848 2195.34 636.592 2202.48 639.698C2208.2 642.2 2216.74 640.696 2224.38 644.745C2233.73 649.705 2227.87 660.799 2228.4 670.839C2228.85 679.519 2243.5 675.163 2248.63 678.477C2251.45 680.298 2251.19 684.029 2248.16 685.456C2246.3 686.333 2241.78 685.719 2233.12 684.578C2217.19 682.471 2219.95 669.04 2221.17 658.242C2221.94 651.373 2222.4 651.538 2209.08 649.694C2205.5 649.2 2202.17 648.959 2198.57 647.148C2191.44 643.582 2189.33 636.175 2190.94 628.242C2192.83 619.002 2195.27 616.577 2188.47 614.426C2178.14 611.178 2168.53 611.815 2162.88 605.483C2152.36 593.676 2172.51 578.127 2176.34 583.899H2176.33Z" fill="#C27800" fill-opacity="0.11"/>
<path d="M1779.97 724.938C1779.01 728.8 1789.07 745.293 1781.64 747.345C1774.05 749.441 1774.31 729.085 1770.73 725.442C1752.45 726.353 1746.11 729.448 1745.47 723.412C1744.81 717.224 1752.5 719.089 1768.2 716.982C1769.26 715.051 1762.45 698.042 1763.13 694.575C1763.9 690.647 1768.65 690.208 1770.49 693.379C1771.21 694.619 1771.19 695.014 1776.34 713.174C1777.23 716.291 1776.88 716.302 1779.54 716.071C1796.47 714.601 1797.29 714.36 1798.91 714.612C1802.83 715.226 1803.41 720.965 1799.81 722.403C1796.84 723.588 1781.39 723.709 1779.98 724.938H1779.97Z" fill="#D9D9D9" fill-opacity="0.5"/>
<path d="M820.079 577.987C817.376 575.101 798.327 574.991 800.588 567.496C802.893 559.837 819.659 570.898 824.581 569.757C833.561 553.505 834.369 546.384 839.721 549.05C845.213 551.783 839.56 557.423 832.948 572.083C833.992 574.025 851.739 577.218 854.259 579.644C857.112 582.398 854.937 586.732 851.34 586.622C849.93 586.579 849.607 586.359 831.774 581.125C828.716 580.225 828.888 579.918 827.671 582.343C819.864 597.727 819.638 598.55 818.561 599.823C815.966 602.885 810.883 600.306 811.615 596.443C812.218 593.25 820.338 579.863 820.079 577.998V577.987Z" fill="#D9D9D9" fill-opacity="0.5"/>
</g>
<defs>
<clipPath id="clip0_25_1237">
<rect width="2243" height="882" fill="white"/>
</clipPath>
</defs>
</svg>
